<?xml version="1.0" standalone="no"?>
<svg xmlns:xlink="http://www.w3.org/1999/xlink" xmlns="http://www.w3.org/2000/svg" class="vtree" width="1360" height="960"><style>
.vtree-node text { font: 14px sans-serif; }
.vtree-link { fill: none; stroke: #888; stroke-width: 2px; }
.vtree-table { stroke-width: 2px; stroke: steelblue; }
path.vtree-table { fill: white; }
g.vtree-node rect { fill: white; stroke: black; stroke-width: 1px; }
g.vtree-node rect.number-text { fill: #d8f0ed; }
g.vtree-node rect.string-text { fill: #e7f0db; }
g.vtree-node rect.boolean-text { fill: #e1d8f0; }
g.vtree-node rect.null-text { fill: #888; }
</style><g class="vtree-root" transform="translate(228.82492457518822,-12.603561427677278)scale(0.8190366978598277)"><g class="vtree-node" transform="translate(480,20)"><g class="vtree-node" transform=""><path class="vtree-link" d="M-286,30C-286,30 447,30 447,30"/><g class="vtree-node" transform="translate(-299,0)"><path class="vtree-link" d="M13,30C13,77.5 13,77.5 13,125"/><g class="vtree-node" transform="translate(-23,84)"><path class="vtree-link" d="M36,41C36,88.5 -186,88.5 -186,136"/><path class="vtree-link" d="M36,41C36,88.5 -360,88.5 -360,136"/><g class="vtree-node" transform="translate(-360,106)"><g class="vtree-node" transform="translate(-27,0)"><path class="vtree-link" d="M27,30C27,85 27,85 27,140"/><g class="vtree-node" transform="translate(-19,84)"><g transform="translate(0,26)"><g transform="translate(0,0)"><rect class="string-text" x="0" y="0" width="66" height="30"/><text x="4" y="26">type</text></g><g transform="translate(66,0)"><rect class="string-text" x="0" y="0" width="26" height="30"/><text x="4" y="26">int</text></g><g transform="translate(0,30)"><rect class="string-text" x="0" y="0" width="66" height="30"/><text x="4" y="26">varname</text></g><g transform="translate(66,30)"><rect class="string-text" x="0" y="0" width="26" height="30"/><text x="4" y="26">x</text></g></g><g><text x="46" y="22" text-anchor="middle">VarDecl</text></g></g><g transform="translate(19,26)"><g transform="translate(0,0)"><rect class="string-text" x="0" y="0" width="8" height="8"/><text x="4" y="4"> </text></g><g transform="translate(8,0)"><rect class="string-text" x="0" y="0" width="8" height="8"/><text x="4" y="4"> </text></g></g><g><text x="27" y="22" text-anchor="middle">args[0]</text></g></g></g><g class="vtree-node" transform="translate(87,106)"><path class="vtree-link" d="M-28,30C-28,30 245,30 245,30"/><path class="vtree-link" d="M-273,30C-273,30 -28,30 -28,30"/><g class="vtree-node" transform="translate(-303,0)"><path class="vtree-link" d="M30,30C30,77.5 30,77.5 30,125"/><g class="vtree-node" transform="translate(5,84)"><path class="vtree-link" d="M25,41C25,88.5 100,88.5 100,136"/><path class="vtree-link" d="M25,41C25,88.5 -22,88.5 -22,136"/><g class="vtree-node" transform="translate(-64,106)"><path class="vtree-link" d="M42,30C42,85 42,85 42,140"/><g class="vtree-node" transform="translate(-6,84)"><path class="vtree-link" d="M48,56C48,111 85,111 85,166"/><path class="vtree-link" d="M48,56C48,111 9,111 9,166"/><g class="vtree-node" transform="translate(-5,136)"><path class="vtree-link" d="M14,30C14,85 14,85 14,140"/><g class="vtree-node" transform="translate(-18,84)"><g transform="translate(0,26)"><g transform="translate(0,0)"><rect class="string-text" x="0" y="0" width="38" height="30"/><text x="4" y="26">data</text></g><g transform="translate(38,0)"><rect class="string-text" x="0" y="0" width="26" height="30"/><text x="4" y="26">x</text></g><g transform="translate(0,30)"><rect class="string-text" x="0" y="0" width="38" height="30"/><text x="4" y="26">type</text></g><g transform="translate(38,30)"><rect class="string-text" x="0" y="0" width="26" height="30"/><text x="4" y="26">int</text></g></g><g><text x="32" y="22" text-anchor="middle">VarRef</text></g></g><g transform="translate(6,26)"><g transform="translate(0,0)"><rect class="string-text" x="0" y="0" width="8" height="8"/><text x="4" y="4"> </text></g><g transform="translate(8,0)"><rect class="string-text" x="0" y="0" width="8" height="8"/><text x="4" y="4"> </text></g></g><g><text x="14" y="22" text-anchor="middle">lhs</text></g></g><g class="vtree-node" transform="translate(70,136)"><path class="vtree-link" d="M15,30C15,85 15,85 15,140"/><g class="vtree-node" transform="translate(-19,84)"><g transform="translate(2,26)"><g transform="translate(0,0)"><rect class="string-text" x="0" y="0" width="38" height="30"/><text x="4" y="26">data</text></g><g transform="translate(38,0)"><rect class="string-text" x="0" y="0" width="26" height="30"/><text x="4" y="26">0</text></g><g transform="translate(0,30)"><rect class="string-text" x="0" y="0" width="38" height="30"/><text x="4" y="26">type</text></g><g transform="translate(38,30)"><rect class="string-text" x="0" y="0" width="26" height="30"/><text x="4" y="26">int</text></g></g><g><text x="34" y="22" text-anchor="middle">Constant</text></g></g><g transform="translate(7,26)"><g transform="translate(0,0)"><rect class="string-text" x="0" y="0" width="8" height="8"/><text x="4" y="4"> </text></g><g transform="translate(8,0)"><rect class="string-text" x="0" y="0" width="8" height="8"/><text x="4" y="4"> </text></g></g><g><text x="15" y="22" text-anchor="middle">rhs</text></g></g><g transform="translate(0,26)"><g transform="translate(0,0)"><rect class="string-text" x="0" y="0" width="79" height="30"/><text x="4" y="26">node_kind</text></g><g transform="translate(79,0)"><rect class="number-text" x="0" y="0" width="16" height="30"/><text x="4" y="26">8</text></g><g transform="translate(0,30)"><rect class="string-text" x="0" y="0" width="79" height="30"/><text x="4" y="26">op_kind</text></g><g transform="translate(79,30)"><rect class="number-text" x="0" y="0" width="16" height="30"/><text x="4" y="26">2</text></g></g><g><text x="48" y="22" text-anchor="middle">BinaryExpr</text></g></g><g transform="translate(34,26)"><g transform="translate(0,0)"><rect class="string-text" x="0" y="0" width="8" height="8"/><text x="4" y="4"> </text></g><g transform="translate(8,0)"><rect class="string-text" x="0" y="0" width="8" height="8"/><text x="4" y="4"> </text></g></g><g><text x="42" y="22" text-anchor="middle">conditional</text></g></g><g class="vtree-node" transform="translate(100,106)"><g class="vtree-node" transform="translate(-28,0)"><path class="vtree-link" d="M28,30C28,72 28,72 28,114"/><g class="vtree-node" transform="translate(-14,84)"><path class="vtree-link" d="M42,30C42,72 42,72 42,114"/><g class="vtree-node" transform="translate(20,84)"><path class="vtree-link" d="M22,30C22,85 22,85 22,140"/><g class="vtree-node" transform="translate(-12,84)"><g transform="translate(2,26)"><g transform="translate(0,0)"><rect class="string-text" x="0" y="0" width="38" height="30"/><text x="4" y="26">data</text></g><g transform="translate(38,0)"><rect class="string-text" x="0" y="0" width="26" height="30"/><text x="4" y="26">0</text></g><g transform="translate(0,30)"><rect class="string-text" x="0" y="0" width="38" height="30"/><text x="4" y="26">type</text></g><g transform="translate(38,30)"><rect class="string-text" x="0" y="0" width="26" height="30"/><text x="4" y="26">int</text></g></g><g><text x="34" y="22" text-anchor="middle">Constant</text></g></g><g transform="translate(14,26)"><g transform="translate(0,0)"><rect class="string-text" x="0" y="0" width="8" height="8"/><text x="4" y="4"> </text></g><g transform="translate(8,0)"><rect class="string-text" x="0" y="0" width="8" height="8"/><text x="4" y="4"> </text></g></g><g><text x="22" y="22" text-anchor="middle">value</text></g></g><g transform="translate(34,26)"><g transform="translate(0,0)"><rect class="string-text" x="0" y="0" width="8" height="8"/><text x="4" y="4"> </text></g><g transform="translate(8,0)"><rect class="string-text" x="0" y="0" width="8" height="8"/><text x="4" y="4"> </text></g></g><g><text x="42" y="22" text-anchor="middle">ReturnStmt</text></g></g><g transform="translate(20,26)"><g transform="translate(0,0)"><rect class="string-text" x="0" y="0" width="8" height="8"/><text x="4" y="4"> </text></g><g transform="translate(8,0)"><rect class="string-text" x="0" y="0" width="8" height="8"/><text x="4" y="4"> </text></g></g><g><text x="28" y="22" text-anchor="middle">then[0]</text></g></g></g><g transform="translate(3,26)"><g transform="translate(0,0)"><rect class="string-text" x="0" y="0" width="35" height="30"/><text x="4" y="26">else</text></g><g transform="translate(35,0)"><rect class="null-text" x="0" y="0" width="8" height="30"/><text x="4" y="4"/></g></g><g><text x="25" y="22" text-anchor="middle">IfStmt</text></g></g><g transform="translate(22,26)"><g transform="translate(0,0)"><rect class="string-text" x="0" y="0" width="8" height="8"/><text x="4" y="4"> </text></g><g transform="translate(8,0)"><rect class="string-text" x="0" y="0" width="8" height="8"/><text x="4" y="4"> </text></g></g><g><text x="30" y="22" text-anchor="middle">body[0]</text></g></g><g class="vtree-node" transform="translate(-58,0)"><path class="vtree-link" d="M30,30C30,77.5 30,77.5 30,125"/><g class="vtree-node" transform="translate(5,84)"><path class="vtree-link" d="M25,41C25,88.5 100,88.5 100,136"/><path class="vtree-link" d="M25,41C25,88.5 -22,88.5 -22,136"/><g class="vtree-node" transform="translate(-64,106)"><path class="vtree-link" d="M42,30C42,85 42,85 42,140"/><g class="vtree-node" transform="translate(-6,84)"><path class="vtree-link" d="M48,56C48,111 85,111 85,166"/><path class="vtree-link" d="M48,56C48,111 9,111 9,166"/><g class="vtree-node" transform="translate(-5,136)"><path class="vtree-link" d="M14,30C14,85 14,85 14,140"/><g class="vtree-node" transform="translate(-18,84)"><g transform="translate(0,26)"><g transform="translate(0,0)"><rect class="string-text" x="0" y="0" width="38" height="30"/><text x="4" y="26">data</text></g><g transform="translate(38,0)"><rect class="string-text" x="0" y="0" width="26" height="30"/><text x="4" y="26">x</text></g><g transform="translate(0,30)"><rect class="string-text" x="0" y="0" width="38" height="30"/><text x="4" y="26">type</text></g><g transform="translate(38,30)"><rect class="string-text" x="0" y="0" width="26" height="30"/><text x="4" y="26">int</text></g></g><g><text x="32" y="22" text-anchor="middle">VarRef</text></g></g><g transform="translate(6,26)"><g transform="translate(0,0)"><rect class="string-text" x="0" y="0" width="8" height="8"/><text x="4" y="4"> </text></g><g transform="translate(8,0)"><rect class="string-text" x="0" y="0" width="8" height="8"/><text x="4" y="4"> </text></g></g><g><text x="14" y="22" text-anchor="middle">lhs</text></g></g><g class="vtree-node" transform="translate(70,136)"><path class="vtree-link" d="M15,30C15,85 15,85 15,140"/><g class="vtree-node" transform="translate(-19,84)"><g transform="translate(2,26)"><g transform="translate(0,0)"><rect class="string-text" x="0" y="0" width="38" height="30"/><text x="4" y="26">data</text></g><g transform="translate(38,0)"><rect class="string-text" x="0" y="0" width="26" height="30"/><text x="4" y="26">1</text></g><g transform="translate(0,30)"><rect class="string-text" x="0" y="0" width="38" height="30"/><text x="4" y="26">type</text></g><g transform="translate(38,30)"><rect class="string-text" x="0" y="0" width="26" height="30"/><text x="4" y="26">int</text></g></g><g><text x="34" y="22" text-anchor="middle">Constant</text></g></g><g transform="translate(7,26)"><g transform="translate(0,0)"><rect class="string-text" x="0" y="0" width="8" height="8"/><text x="4" y="4"> </text></g><g transform="translate(8,0)"><rect class="string-text" x="0" y="0" width="8" height="8"/><text x="4" y="4"> </text></g></g><g><text x="15" y="22" text-anchor="middle">rhs</text></g></g><g transform="translate(0,26)"><g transform="translate(0,0)"><rect class="string-text" x="0" y="0" width="79" height="30"/><text x="4" y="26">node_kind</text></g><g transform="translate(79,0)"><rect class="number-text" x="0" y="0" width="16" height="30"/><text x="4" y="26">8</text></g><g transform="translate(0,30)"><rect class="string-text" x="0" y="0" width="79" height="30"/><text x="4" y="26">op_kind</text></g><g transform="translate(79,30)"><rect class="number-text" x="0" y="0" width="16" height="30"/><text x="4" y="26">3</text></g></g><g><text x="48" y="22" text-anchor="middle">BinaryExpr</text></g></g><g transform="translate(34,26)"><g transform="translate(0,0)"><rect class="string-text" x="0" y="0" width="8" height="8"/><text x="4" y="4"> </text></g><g transform="translate(8,0)"><rect class="string-text" x="0" y="0" width="8" height="8"/><text x="4" y="4"> </text></g></g><g><text x="42" y="22" text-anchor="middle">conditional</text></g></g><g class="vtree-node" transform="translate(100,106)"><g class="vtree-node" transform="translate(-28,0)"><path class="vtree-link" d="M28,30C28,72 28,72 28,114"/><g class="vtree-node" transform="translate(-14,84)"><path class="vtree-link" d="M42,30C42,72 42,72 42,114"/><g class="vtree-node" transform="translate(20,84)"><path class="vtree-link" d="M22,30C22,85 22,85 22,140"/><g class="vtree-node" transform="translate(-12,84)"><g transform="translate(2,26)"><g transform="translate(0,0)"><rect class="string-text" x="0" y="0" width="38" height="30"/><text x="4" y="26">data</text></g><g transform="translate(38,0)"><rect class="string-text" x="0" y="0" width="26" height="30"/><text x="4" y="26">1</text></g><g transform="translate(0,30)"><rect class="string-text" x="0" y="0" width="38" height="30"/><text x="4" y="26">type</text></g><g transform="translate(38,30)"><rect class="string-text" x="0" y="0" width="26" height="30"/><text x="4" y="26">int</text></g></g><g><text x="34" y="22" text-anchor="middle">Constant</text></g></g><g transform="translate(14,26)"><g transform="translate(0,0)"><rect class="string-text" x="0" y="0" width="8" height="8"/><text x="4" y="4"> </text></g><g transform="translate(8,0)"><rect class="string-text" x="0" y="0" width="8" height="8"/><text x="4" y="4"> </text></g></g><g><text x="22" y="22" text-anchor="middle">value</text></g></g><g transform="translate(34,26)"><g transform="translate(0,0)"><rect class="string-text" x="0" y="0" width="8" height="8"/><text x="4" y="4"> </text></g><g transform="translate(8,0)"><rect class="string-text" x="0" y="0" width="8" height="8"/><text x="4" y="4"> </text></g></g><g><text x="42" y="22" text-anchor="middle">ReturnStmt</text></g></g><g transform="translate(20,26)"><g transform="translate(0,0)"><rect class="string-text" x="0" y="0" width="8" height="8"/><text x="4" y="4"> </text></g><g transform="translate(8,0)"><rect class="string-text" x="0" y="0" width="8" height="8"/><text x="4" y="4"> </text></g></g><g><text x="28" y="22" text-anchor="middle">then[0]</text></g></g></g><g transform="translate(3,26)"><g transform="translate(0,0)"><rect class="string-text" x="0" y="0" width="35" height="30"/><text x="4" y="26">else</text></g><g transform="translate(35,0)"><rect class="null-text" x="0" y="0" width="8" height="30"/><text x="4" y="4"/></g></g><g><text x="25" y="22" text-anchor="middle">IfStmt</text></g></g><g transform="translate(22,26)"><g transform="translate(0,0)"><rect class="string-text" x="0" y="0" width="8" height="8"/><text x="4" y="4"> </text></g><g transform="translate(8,0)"><rect class="string-text" x="0" y="0" width="8" height="8"/><text x="4" y="4"> </text></g></g><g><text x="30" y="22" text-anchor="middle">body[1]</text></g></g><g class="vtree-node" transform="translate(215,0)"><path class="vtree-link" d="M30,30C30,72 30,72 30,114"/><g class="vtree-node" transform="translate(-12,84)"><path class="vtree-link" d="M42,30C42,72 42,72 42,114"/><g class="vtree-node" transform="translate(20,84)"><path class="vtree-link" d="M22,30C22,85 22,85 22,140"/><g class="vtree-node" transform="translate(-26,84)"><path class="vtree-link" d="M48,56C48,111 124,111 124,166"/><path class="vtree-link" d="M48,56C48,111 -27,111 -27,166"/><g class="vtree-node" transform="translate(-41,136)"><path class="vtree-link" d="M14,30C14,72 14,72 14,114"/><g class="vtree-node" transform="translate(-3,84)"><path class="vtree-link" d="M17,30C17,72 17,72 17,114"/><g class="vtree-node" transform="translate(17,84)"><g class="vtree-node" transform="translate(-27,0)"><path class="vtree-link" d="M27,30C27,85 27,85 27,140"/><g class="vtree-node" transform="translate(-25,84)"><path class="vtree-link" d="M52,56C52,111 89,111 89,166"/><path class="vtree-link" d="M52,56C52,111 13,111 13,166"/><g class="vtree-node" transform="translate(-1,136)"><path class="vtree-link" d="M14,30C14,85 14,85 14,140"/><g class="vtree-node" transform="translate(-18,84)"><g transform="translate(0,26)"><g transform="translate(0,0)"><rect class="string-text" x="0" y="0" width="38" height="30"/><text x="4" y="26">data</text></g><g transform="translate(38,0)"><rect class="string-text" x="0" y="0" width="26" height="30"/><text x="4" y="26">x</text></g><g transform="translate(0,30)"><rect class="string-text" x="0" y="0" width="38" height="30"/><text x="4" y="26">type</text></g><g transform="translate(38,30)"><rect class="string-text" x="0" y="0" width="26" height="30"/><text x="4" y="26">int</text></g></g><g><text x="32" y="22" text-anchor="middle">VarRef</text></g></g><g transform="translate(6,26)"><g transform="translate(0,0)"><rect class="string-text" x="0" y="0" width="8" height="8"/><text x="4" y="4"> </text></g><g transform="translate(8,0)"><rect class="string-text" x="0" y="0" width="8" height="8"/><text x="4" y="4"> </text></g></g><g><text x="14" y="22" text-anchor="middle">lhs</text></g></g><g class="vtree-node" transform="translate(74,136)"><path class="vtree-link" d="M15,30C15,85 15,85 15,140"/><g class="vtree-node" transform="translate(-19,84)"><g transform="translate(2,26)"><g transform="translate(0,0)"><rect class="string-text" x="0" y="0" width="38" height="30"/><text x="4" y="26">data</text></g><g transform="translate(38,0)"><rect class="string-text" x="0" y="0" width="26" height="30"/><text x="4" y="26">1</text></g><g transform="translate(0,30)"><rect class="string-text" x="0" y="0" width="38" height="30"/><text x="4" y="26">type</text></g><g transform="translate(38,30)"><rect class="string-text" x="0" y="0" width="26" height="30"/><text x="4" y="26">int</text></g></g><g><text x="34" y="22" text-anchor="middle">Constant</text></g></g><g transform="translate(7,26)"><g transform="translate(0,0)"><rect class="string-text" x="0" y="0" width="8" height="8"/><text x="4" y="4"> </text></g><g transform="translate(8,0)"><rect class="string-text" x="0" y="0" width="8" height="8"/><text x="4" y="4"> </text></g></g><g><text x="15" y="22" text-anchor="middle">rhs</text></g></g><g transform="translate(0,26)"><g transform="translate(0,0)"><rect class="string-text" x="0" y="0" width="79" height="30"/><text x="4" y="26">node_kind</text></g><g transform="translate(79,0)"><rect class="number-text" x="0" y="0" width="24" height="30"/><text x="4" y="26">8</text></g><g transform="translate(0,30)"><rect class="string-text" x="0" y="0" width="79" height="30"/><text x="4" y="26">op_kind</text></g><g transform="translate(79,30)"><rect class="number-text" x="0" y="0" width="24" height="30"/><text x="4" y="26">10</text></g></g><g><text x="52" y="22" text-anchor="middle">BinaryExpr</text></g></g><g transform="translate(19,26)"><g transform="translate(0,0)"><rect class="string-text" x="0" y="0" width="8" height="8"/><text x="4" y="4"> </text></g><g transform="translate(8,0)"><rect class="string-text" x="0" y="0" width="8" height="8"/><text x="4" y="4"> </text></g></g><g><text x="27" y="22" text-anchor="middle">args[0]</text></g></g></g><g transform="translate(9,26)"><g transform="translate(0,0)"><rect class="string-text" x="0" y="0" width="8" height="8"/><text x="4" y="4"> </text></g><g transform="translate(8,0)"><rect class="string-text" x="0" y="0" width="8" height="8"/><text x="4" y="4"> </text></g></g><g><text x="17" y="22" text-anchor="middle">Call</text></g></g><g transform="translate(6,26)"><g transform="translate(0,0)"><rect class="string-text" x="0" y="0" width="8" height="8"/><text x="4" y="4"> </text></g><g transform="translate(8,0)"><rect class="string-text" x="0" y="0" width="8" height="8"/><text x="4" y="4"> </text></g></g><g><text x="14" y="22" text-anchor="middle">lhs</text></g></g><g class="vtree-node" transform="translate(109,136)"><path class="vtree-link" d="M15,30C15,72 15,72 15,114"/><g class="vtree-node" transform="translate(-2,84)"><path class="vtree-link" d="M17,30C17,72 17,72 17,114"/><g class="vtree-node" transform="translate(17,84)"><g class="vtree-node" transform="translate(-27,0)"><path class="vtree-link" d="M27,30C27,85 27,85 27,140"/><g class="vtree-node" transform="translate(-25,84)"><path class="vtree-link" d="M52,56C52,111 89,111 89,166"/><path class="vtree-link" d="M52,56C52,111 13,111 13,166"/><g class="vtree-node" transform="translate(-1,136)"><path class="vtree-link" d="M14,30C14,85 14,85 14,140"/><g class="vtree-node" transform="translate(-18,84)"><g transform="translate(0,26)"><g transform="translate(0,0)"><rect class="string-text" x="0" y="0" width="38" height="30"/><text x="4" y="26">data</text></g><g transform="translate(38,0)"><rect class="string-text" x="0" y="0" width="26" height="30"/><text x="4" y="26">x</text></g><g transform="translate(0,30)"><rect class="string-text" x="0" y="0" width="38" height="30"/><text x="4" y="26">type</text></g><g transform="translate(38,30)"><rect class="string-text" x="0" y="0" width="26" height="30"/><text x="4" y="26">int</text></g></g><g><text x="32" y="22" text-anchor="middle">VarRef</text></g></g><g transform="translate(6,26)"><g transform="translate(0,0)"><rect class="string-text" x="0" y="0" width="8" height="8"/><text x="4" y="4"> </text></g><g transform="translate(8,0)"><rect class="string-text" x="0" y="0" width="8" height="8"/><text x="4" y="4"> </text></g></g><g><text x="14" y="22" text-anchor="middle">lhs</text></g></g><g class="vtree-node" transform="translate(74,136)"><path class="vtree-link" d="M15,30C15,85 15,85 15,140"/><g class="vtree-node" transform="translate(-19,84)"><g transform="translate(2,26)"><g transform="translate(0,0)"><rect class="string-text" x="0" y="0" width="38" height="30"/><text x="4" y="26">data</text></g><g transform="translate(38,0)"><rect class="string-text" x="0" y="0" width="26" height="30"/><text x="4" y="26">2</text></g><g transform="translate(0,30)"><rect class="string-text" x="0" y="0" width="38" height="30"/><text x="4" y="26">type</text></g><g transform="translate(38,30)"><rect class="string-text" x="0" y="0" width="26" height="30"/><text x="4" y="26">int</text></g></g><g><text x="34" y="22" text-anchor="middle">Constant</text></g></g><g transform="translate(7,26)"><g transform="translate(0,0)"><rect class="string-text" x="0" y="0" width="8" height="8"/><text x="4" y="4"> </text></g><g transform="translate(8,0)"><rect class="string-text" x="0" y="0" width="8" height="8"/><text x="4" y="4"> </text></g></g><g><text x="15" y="22" text-anchor="middle">rhs</text></g></g><g transform="translate(0,26)"><g transform="translate(0,0)"><rect class="string-text" x="0" y="0" width="79" height="30"/><text x="4" y="26">node_kind</text></g><g transform="translate(79,0)"><rect class="number-text" x="0" y="0" width="24" height="30"/><text x="4" y="26">8</text></g><g transform="translate(0,30)"><rect class="string-text" x="0" y="0" width="79" height="30"/><text x="4" y="26">op_kind</text></g><g transform="translate(79,30)"><rect class="number-text" x="0" y="0" width="24" height="30"/><text x="4" y="26">10</text></g></g><g><text x="52" y="22" text-anchor="middle">BinaryExpr</text></g></g><g transform="translate(19,26)"><g transform="translate(0,0)"><rect class="string-text" x="0" y="0" width="8" height="8"/><text x="4" y="4"> </text></g><g transform="translate(8,0)"><rect class="string-text" x="0" y="0" width="8" height="8"/><text x="4" y="4"> </text></g></g><g><text x="27" y="22" text-anchor="middle">args[0]</text></g></g></g><g transform="translate(9,26)"><g transform="translate(0,0)"><rect class="string-text" x="0" y="0" width="8" height="8"/><text x="4" y="4"> </text></g><g transform="translate(8,0)"><rect class="string-text" x="0" y="0" width="8" height="8"/><text x="4" y="4"> </text></g></g><g><text x="17" y="22" text-anchor="middle">Call</text></g></g><g transform="translate(7,26)"><g transform="translate(0,0)"><rect class="string-text" x="0" y="0" width="8" height="8"/><text x="4" y="4"> </text></g><g transform="translate(8,0)"><rect class="string-text" x="0" y="0" width="8" height="8"/><text x="4" y="4"> </text></g></g><g><text x="15" y="22" text-anchor="middle">rhs</text></g></g><g transform="translate(0,26)"><g transform="translate(0,0)"><rect class="string-text" x="0" y="0" width="79" height="30"/><text x="4" y="26">node_kind</text></g><g transform="translate(79,0)"><rect class="number-text" x="0" y="0" width="16" height="30"/><text x="4" y="26">8</text></g><g transform="translate(0,30)"><rect class="string-text" x="0" y="0" width="79" height="30"/><text x="4" y="26">op_kind</text></g><g transform="translate(79,30)"><rect class="number-text" x="0" y="0" width="16" height="30"/><text x="4" y="26">9</text></g></g><g><text x="48" y="22" text-anchor="middle">BinaryExpr</text></g></g><g transform="translate(14,26)"><g transform="translate(0,0)"><rect class="string-text" x="0" y="0" width="8" height="8"/><text x="4" y="4"> </text></g><g transform="translate(8,0)"><rect class="string-text" x="0" y="0" width="8" height="8"/><text x="4" y="4"> </text></g></g><g><text x="22" y="22" text-anchor="middle">value</text></g></g><g transform="translate(34,26)"><g transform="translate(0,0)"><rect class="string-text" x="0" y="0" width="8" height="8"/><text x="4" y="4"> </text></g><g transform="translate(8,0)"><rect class="string-text" x="0" y="0" width="8" height="8"/><text x="4" y="4"> </text></g></g><g><text x="42" y="22" text-anchor="middle">ReturnStmt</text></g></g><g transform="translate(22,26)"><g transform="translate(0,0)"><rect class="string-text" x="0" y="0" width="8" height="8"/><text x="4" y="4"> </text></g><g transform="translate(8,0)"><rect class="string-text" x="0" y="0" width="8" height="8"/><text x="4" y="4"> </text></g></g><g><text x="30" y="22" text-anchor="middle">body[2]</text></g></g></g><g transform="translate(0,26)"><g transform="translate(0,0)"><rect class="string-text" x="0" y="0" width="46" height="30"/><text x="4" y="26">name</text></g><g transform="translate(46,0)"><rect class="string-text" x="0" y="0" width="26" height="30"/><text x="4" y="26">fib</text></g></g><g><text x="36" y="22" text-anchor="middle">FuncDecl</text></g></g><g transform="translate(5,26)"><g transform="translate(0,0)"><rect class="string-text" x="0" y="0" width="8" height="8"/><text x="4" y="4"> </text></g><g transform="translate(8,0)"><rect class="string-text" x="0" y="0" width="8" height="8"/><text x="4" y="4"> </text></g></g><g><text x="13" y="22" text-anchor="middle">[0]</text></g></g><g class="vtree-node" transform="translate(434,0)"><path class="vtree-link" d="M13,30C13,85 13,85 13,140"/><g class="vtree-node" transform="translate(-31,84)"><path class="vtree-link" d="M44,56C44,111 -191,111 -191,166"/><g class="vtree-node" transform="translate(44,136)"><path class="vtree-link" d="M80,30C80,30 239,30 239,30"/><path class="vtree-link" d="M-108,30C-108,30 80,30 80,30"/><path class="vtree-link" d="M-235,30C-235,30 -108,30 -108,30"/><g class="vtree-node" transform="translate(-265,0)"><path class="vtree-link" d="M30,30C30,85 30,85 30,140"/><g class="vtree-node" transform="translate(-16,84)"><g transform="translate(0,26)"><g transform="translate(0,0)"><rect class="string-text" x="0" y="0" width="66" height="30"/><text x="4" y="26">type</text></g><g transform="translate(66,0)"><rect class="string-text" x="0" y="0" width="26" height="30"/><text x="4" y="26">int</text></g><g transform="translate(0,30)"><rect class="string-text" x="0" y="0" width="66" height="30"/><text x="4" y="26">varname</text></g><g transform="translate(66,30)"><rect class="string-text" x="0" y="0" width="26" height="30"/><text x="4" y="26">z</text></g></g><g><text x="46" y="22" text-anchor="middle">VarDecl</text></g></g><g transform="translate(22,26)"><g transform="translate(0,0)"><rect class="string-text" x="0" y="0" width="8" height="8"/><text x="4" y="4"> </text></g><g transform="translate(8,0)"><rect class="string-text" x="0" y="0" width="8" height="8"/><text x="4" y="4"> </text></g></g><g><text x="30" y="22" text-anchor="middle">body[0]</text></g></g><g class="vtree-node" transform="translate(-138,0)"><path class="vtree-link" d="M30,30C30,72 30,72 30,114"/><g class="vtree-node" transform="translate(-11,84)"><path class="vtree-link" d="M41,30C41,72 79,72 79,114"/><path class="vtree-link" d="M41,30C41,72 4,72 4,114"/><g class="vtree-node" transform="translate(-10,84)"><path class="vtree-link" d="M14,30C14,85 14,85 14,140"/><g class="vtree-node" transform="translate(-20,84)"><g transform="translate(2,26)"><g transform="translate(0,0)"><rect class="string-text" x="0" y="0" width="38" height="30"/><text x="4" y="26">data</text></g><g transform="translate(38,0)"><rect class="string-text" x="0" y="0" width="26" height="30"/><text x="4" y="26">8</text></g><g transform="translate(0,30)"><rect class="string-text" x="0" y="0" width="38" height="30"/><text x="4" y="26">type</text></g><g transform="translate(38,30)"><rect class="string-text" x="0" y="0" width="26" height="30"/><text x="4" y="26">int</text></g></g><g><text x="34" y="22" text-anchor="middle">Constant</text></g></g><g transform="translate(6,26)"><g transform="translate(0,0)"><rect class="string-text" x="0" y="0" width="8" height="8"/><text x="4" y="4"> </text></g><g transform="translate(8,0)"><rect class="string-text" x="0" y="0" width="8" height="8"/><text x="4" y="4"> </text></g></g><g><text x="14" y="22" text-anchor="middle">val</text></g></g><g class="vtree-node" transform="translate(64,84)"><path class="vtree-link" d="M15,30C15,85 15,85 15,140"/><g class="vtree-node" transform="translate(-17,84)"><g transform="translate(0,26)"><g transform="translate(0,0)"><rect class="string-text" x="0" y="0" width="38" height="30"/><text x="4" y="26">data</text></g><g transform="translate(38,0)"><rect class="string-text" x="0" y="0" width="26" height="30"/><text x="4" y="26">z</text></g><g transform="translate(0,30)"><rect class="string-text" x="0" y="0" width="38" height="30"/><text x="4" y="26">type</text></g><g transform="translate(38,30)"><rect class="string-text" x="0" y="0" width="26" height="30"/><text x="4" y="26">int</text></g></g><g><text x="32" y="22" text-anchor="middle">VarRef</text></g></g><g transform="translate(7,26)"><g transform="translate(0,0)"><rect class="string-text" x="0" y="0" width="8" height="8"/><text x="4" y="4"> </text></g><g transform="translate(8,0)"><rect class="string-text" x="0" y="0" width="8" height="8"/><text x="4" y="4"> </text></g></g><g><text x="15" y="22" text-anchor="middle">var</text></g></g><g transform="translate(33,26)"><g transform="translate(0,0)"><rect class="string-text" x="0" y="0" width="8" height="8"/><text x="4" y="4"> </text></g><g transform="translate(8,0)"><rect class="string-text" x="0" y="0" width="8" height="8"/><text x="4" y="4"> </text></g></g><g><text x="41" y="22" text-anchor="middle">AssignStmt</text></g></g><g transform="translate(22,26)"><g transform="translate(0,0)"><rect class="string-text" x="0" y="0" width="8" height="8"/><text x="4" y="4"> </text></g><g transform="translate(8,0)"><rect class="string-text" x="0" y="0" width="8" height="8"/><text x="4" y="4"> </text></g></g><g><text x="30" y="22" text-anchor="middle">body[1]</text></g></g><g class="vtree-node" transform="translate(50,0)"><path class="vtree-link" d="M30,30C30,72 30,72 30,114"/><g class="vtree-node" transform="translate(-11,84)"><path class="vtree-link" d="M41,30C41,72 116,72 116,114"/><path class="vtree-link" d="M41,30C41,72 4,72 4,114"/><g class="vtree-node" transform="translate(-10,84)"><path class="vtree-link" d="M14,30C14,85 14,85 14,140"/><g class="vtree-node" transform="translate(-34,84)"><path class="vtree-link" d="M48,56C48,111 85,111 85,166"/><path class="vtree-link" d="M48,56C48,111 9,111 9,166"/><g class="vtree-node" transform="translate(-5,136)"><path class="vtree-link" d="M14,30C14,85 14,85 14,140"/><g class="vtree-node" transform="translate(-18,84)"><g transform="translate(0,26)"><g transform="translate(0,0)"><rect class="string-text" x="0" y="0" width="38" height="30"/><text x="4" y="26">data</text></g><g transform="translate(38,0)"><rect class="string-text" x="0" y="0" width="26" height="30"/><text x="4" y="26">z</text></g><g transform="translate(0,30)"><rect class="string-text" x="0" y="0" width="38" height="30"/><text x="4" y="26">type</text></g><g transform="translate(38,30)"><rect class="string-text" x="0" y="0" width="26" height="30"/><text x="4" y="26">int</text></g></g><g><text x="32" y="22" text-anchor="middle">VarRef</text></g></g><g transform="translate(6,26)"><g transform="translate(0,0)"><rect class="string-text" x="0" y="0" width="8" height="8"/><text x="4" y="4"> </text></g><g transform="translate(8,0)"><rect class="string-text" x="0" y="0" width="8" height="8"/><text x="4" y="4"> </text></g></g><g><text x="14" y="22" text-anchor="middle">lhs</text></g></g><g class="vtree-node" transform="translate(70,136)"><path class="vtree-link" d="M15,30C15,72 15,72 15,114"/><g class="vtree-node" transform="translate(-2,84)"><path class="vtree-link" d="M17,30C17,72 17,72 17,114"/><g class="vtree-node" transform="translate(17,84)"><g class="vtree-node" transform="translate(-27,0)"><path class="vtree-link" d="M27,30C27,85 27,85 27,140"/><g class="vtree-node" transform="translate(-7,84)"><g transform="translate(2,26)"><g transform="translate(0,0)"><rect class="string-text" x="0" y="0" width="38" height="30"/><text x="4" y="26">data</text></g><g transform="translate(38,0)"><rect class="string-text" x="0" y="0" width="26" height="30"/><text x="4" y="26">5</text></g><g transform="translate(0,30)"><rect class="string-text" x="0" y="0" width="38" height="30"/><text x="4" y="26">type</text></g><g transform="translate(38,30)"><rect class="string-text" x="0" y="0" width="26" height="30"/><text x="4" y="26">int</text></g></g><g><text x="34" y="22" text-anchor="middle">Constant</text></g></g><g transform="translate(19,26)"><g transform="translate(0,0)"><rect class="string-text" x="0" y="0" width="8" height="8"/><text x="4" y="4"> </text></g><g transform="translate(8,0)"><rect class="string-text" x="0" y="0" width="8" height="8"/><text x="4" y="4"> </text></g></g><g><text x="27" y="22" text-anchor="middle">args[0]</text></g></g></g><g transform="translate(9,26)"><g transform="translate(0,0)"><rect class="string-text" x="0" y="0" width="8" height="8"/><text x="4" y="4"> </text></g><g transform="translate(8,0)"><rect class="string-text" x="0" y="0" width="8" height="8"/><text x="4" y="4"> </text></g></g><g><text x="17" y="22" text-anchor="middle">Call</text></g></g><g transform="translate(7,26)"><g transform="translate(0,0)"><rect class="string-text" x="0" y="0" width="8" height="8"/><text x="4" y="4"> </text></g><g transform="translate(8,0)"><rect class="string-text" x="0" y="0" width="8" height="8"/><text x="4" y="4"> </text></g></g><g><text x="15" y="22" text-anchor="middle">rhs</text></g></g><g transform="translate(0,26)"><g transform="translate(0,0)"><rect class="string-text" x="0" y="0" width="79" height="30"/><text x="4" y="26">node_kind</text></g><g transform="translate(79,0)"><rect class="number-text" x="0" y="0" width="16" height="30"/><text x="4" y="26">8</text></g><g transform="translate(0,30)"><rect class="string-text" x="0" y="0" width="79" height="30"/><text x="4" y="26">op_kind</text></g><g transform="translate(79,30)"><rect class="number-text" x="0" y="0" width="16" height="30"/><text x="4" y="26">9</text></g></g><g><text x="48" y="22" text-anchor="middle">BinaryExpr</text></g></g><g transform="translate(6,26)"><g transform="translate(0,0)"><rect class="string-text" x="0" y="0" width="8" height="8"/><text x="4" y="4"> </text></g><g transform="translate(8,0)"><rect class="string-text" x="0" y="0" width="8" height="8"/><text x="4" y="4"> </text></g></g><g><text x="14" y="22" text-anchor="middle">val</text></g></g><g class="vtree-node" transform="translate(101,84)"><path class="vtree-link" d="M15,30C15,85 15,85 15,140"/><g class="vtree-node" transform="translate(-17,84)"><g transform="translate(0,26)"><g transform="translate(0,0)"><rect class="string-text" x="0" y="0" width="38" height="30"/><text x="4" y="26">data</text></g><g transform="translate(38,0)"><rect class="string-text" x="0" y="0" width="26" height="30"/><text x="4" y="26">z</text></g><g transform="translate(0,30)"><rect class="string-text" x="0" y="0" width="38" height="30"/><text x="4" y="26">type</text></g><g transform="translate(38,30)"><rect class="string-text" x="0" y="0" width="26" height="30"/><text x="4" y="26">int</text></g></g><g><text x="32" y="22" text-anchor="middle">VarRef</text></g></g><g transform="translate(7,26)"><g transform="translate(0,0)"><rect class="string-text" x="0" y="0" width="8" height="8"/><text x="4" y="4"> </text></g><g transform="translate(8,0)"><rect class="string-text" x="0" y="0" width="8" height="8"/><text x="4" y="4"> </text></g></g><g><text x="15" y="22" text-anchor="middle">var</text></g></g><g transform="translate(33,26)"><g transform="translate(0,0)"><rect class="string-text" x="0" y="0" width="8" height="8"/><text x="4" y="4"> </text></g><g transform="translate(8,0)"><rect class="string-text" x="0" y="0" width="8" height="8"/><text x="4" y="4"> </text></g></g><g><text x="41" y="22" text-anchor="middle">AssignStmt</text></g></g><g transform="translate(22,26)"><g transform="translate(0,0)"><rect class="string-text" x="0" y="0" width="8" height="8"/><text x="4" y="4"> </text></g><g transform="translate(8,0)"><rect class="string-text" x="0" y="0" width="8" height="8"/><text x="4" y="4"> </text></g></g><g><text x="30" y="22" text-anchor="middle">body[2]</text></g></g><g class="vtree-node" transform="translate(209,0)"><path class="vtree-link" d="M30,30C30,72 30,72 30,114"/><g class="vtree-node" transform="translate(-12,84)"><path class="vtree-link" d="M42,30C42,72 42,72 42,114"/><g class="vtree-node" transform="translate(20,84)"><path class="vtree-link" d="M22,30C22,72 22,72 22,114"/><g class="vtree-node" transform="translate(5,84)"><path class="vtree-link" d="M17,30C17,72 17,72 17,114"/><g class="vtree-node" transform="translate(17,84)"><g class="vtree-node" transform="translate(-27,0)"><path class="vtree-link" d="M27,30C27,85 27,85 27,140"/><g class="vtree-node" transform="translate(-5,84)"><g transform="translate(0,26)"><g transform="translate(0,0)"><rect class="string-text" x="0" y="0" width="38" height="30"/><text x="4" y="26">data</text></g><g transform="translate(38,0)"><rect class="string-text" x="0" y="0" width="26" height="30"/><text x="4" y="26">z</text></g><g transform="translate(0,30)"><rect class="string-text" x="0" y="0" width="38" height="30"/><text x="4" y="26">type</text></g><g transform="translate(38,30)"><rect class="string-text" x="0" y="0" width="26" height="30"/><text x="4" y="26">int</text></g></g><g><text x="32" y="22" text-anchor="middle">VarRef</text></g></g><g transform="translate(19,26)"><g transform="translate(0,0)"><rect class="string-text" x="0" y="0" width="8" height="8"/><text x="4" y="4"> </text></g><g transform="translate(8,0)"><rect class="string-text" x="0" y="0" width="8" height="8"/><text x="4" y="4"> </text></g></g><g><text x="27" y="22" text-anchor="middle">args[0]</text></g></g></g><g transform="translate(9,26)"><g transform="translate(0,0)"><rect class="string-text" x="0" y="0" width="8" height="8"/><text x="4" y="4"> </text></g><g transform="translate(8,0)"><rect class="string-text" x="0" y="0" width="8" height="8"/><text x="4" y="4"> </text></g></g><g><text x="17" y="22" text-anchor="middle">Call</text></g></g><g transform="translate(14,26)"><g transform="translate(0,0)"><rect class="string-text" x="0" y="0" width="8" height="8"/><text x="4" y="4"> </text></g><g transform="translate(8,0)"><rect class="string-text" x="0" y="0" width="8" height="8"/><text x="4" y="4"> </text></g></g><g><text x="22" y="22" text-anchor="middle">value</text></g></g><g transform="translate(34,26)"><g transform="translate(0,0)"><rect class="string-text" x="0" y="0" width="8" height="8"/><text x="4" y="4"> </text></g><g transform="translate(8,0)"><rect class="string-text" x="0" y="0" width="8" height="8"/><text x="4" y="4"> </text></g></g><g><text x="42" y="22" text-anchor="middle">ReturnStmt</text></g></g><g transform="translate(22,26)"><g transform="translate(0,0)"><rect class="string-text" x="0" y="0" width="8" height="8"/><text x="4" y="4"> </text></g><g transform="translate(8,0)"><rect class="string-text" x="0" y="0" width="8" height="8"/><text x="4" y="4"> </text></g></g><g><text x="30" y="22" text-anchor="middle">body[3]</text></g></g></g><g transform="translate(0,26)"><g transform="translate(0,0)"><rect class="string-text" x="0" y="0" width="46" height="30"/><text x="4" y="26">args</text></g><g transform="translate(46,0)"><rect class="null-text" x="0" y="0" width="42" height="30"/><text x="4" y="4"/></g><g transform="translate(0,30)"><rect class="string-text" x="0" y="0" width="46" height="30"/><text x="4" y="26">name</text></g><g transform="translate(46,30)"><rect class="string-text" x="0" y="0" width="42" height="30"/><text x="4" y="26">main</text></g></g><g><text x="44" y="22" text-anchor="middle">FuncDecl</text></g></g><g transform="translate(5,26)"><g transform="translate(0,0)"><rect class="string-text" x="0" y="0" width="8" height="8"/><text x="4" y="4"> </text></g><g transform="translate(8,0)"><rect class="string-text" x="0" y="0" width="8" height="8"/><text x="4" y="4"> </text></g></g><g><text x="13" y="22" text-anchor="middle">[1]</text></g></g></g></g></g></svg>
