<?xml version="1.0" standalone="no"?>
<svg xmlns:xlink="http://www.w3.org/1999/xlink" xmlns="http://www.w3.org/2000/svg" class="vtree" width="960" height="800"><style>
.vtree-node text { font: 14px sans-serif; }
.vtree-link { fill: none; stroke: #888; stroke-width: 2px; }
.vtree-table { stroke-width: 2px; stroke: steelblue; }
path.vtree-table { fill: white; }
g.vtree-node rect { fill: white; stroke: black; stroke-width: 1px; }
g.vtree-node rect.number-text { fill: #d8f0ed; }
g.vtree-node rect.string-text { fill: #e7f0db; }
g.vtree-node rect.boolean-text { fill: #e1d8f0; }
g.vtree-node rect.null-text { fill: #888; }
</style><g class="vtree-root" transform="translate(148.3649085398058,-2.1890083329844003)scale(0.6551500423715035)"><g class="vtree-node" transform="translate(480,20)"><g class="vtree-node" transform=""><path class="vtree-link" d="M-274,24C-274,24 429,24 429,24"/><g class="vtree-node" transform="translate(-286,0)"><path class="vtree-link" d="M12,24C12,67 13,67 13,110"/><g class="vtree-node" transform="translate(-22,78)"><path class="vtree-link" d="M35,32C35,75.5 -181,75.5 -181,119"/><path class="vtree-link" d="M35,32C35,75.5 -347,75.5 -347,119"/><g class="vtree-node" transform="translate(-347,94)"><g class="vtree-node" transform="translate(-26,0)"><path class="vtree-link" d="M26,25C26,74.5 26,74.5 26,124"/><g class="vtree-node" transform="translate(-17,79)"><g transform="translate(0,20)"><g transform="translate(0,0)"><rect class="string-text" x="0" y="0" width="63" height="25"/><text x="4" y="21">type</text></g><g transform="translate(63,0)"><rect class="string-text" x="0" y="0" width="23" height="25"/><text x="4" y="20">int</text></g><g transform="translate(0,25)"><rect class="string-text" x="0" y="0" width="63" height="24"/><text x="4" y="20">varname</text></g><g transform="translate(63,25)"><rect class="string-text" x="0" y="0" width="23" height="24"/><text x="4" y="20">x</text></g></g><g><text x="43" y="16" text-anchor="middle">VarDecl</text></g></g><g transform="translate(18,21)"><g transform="translate(0,0)"><rect class="string-text" x="0" y="0" width="8" height="8"/><text x="4" y="4"> </text></g><g transform="translate(8,0)"><rect class="string-text" x="0" y="0" width="8" height="8"/><text x="4" y="4"> </text></g></g><g><text x="26" y="17" text-anchor="middle">args[0]</text></g></g></g><g class="vtree-node" transform="translate(82,94)"><path class="vtree-link" d="M-28,25C-28,25 235,25 235,25"/><path class="vtree-link" d="M-263,25C-263,25 -28,25 -28,25"/><g class="vtree-node" transform="translate(-290,0)"><path class="vtree-link" d="M27,25C27,68 27,68 27,111"/><g class="vtree-node" transform="translate(4,79)"><path class="vtree-link" d="M23,32C23,75 96,75 96,118"/><path class="vtree-link" d="M23,32C23,75 -22,75 -22,118"/><g class="vtree-node" transform="translate(-60,94)"><path class="vtree-link" d="M38,24C38,73 38,73 38,122"/><g class="vtree-node" transform="translate(-7,78)"><path class="vtree-link" d="M45,44C45,93 81,93 81,142"/><path class="vtree-link" d="M45,44C45,93 8,93 8,142"/><g class="vtree-node" transform="translate(-5,118)"><path class="vtree-link" d="M13,24C13,73.5 13,73.5 13,123"/><g class="vtree-node" transform="translate(-18,78)"><g transform="translate(0,20)"><g transform="translate(0,0)"><rect class="string-text" x="0" y="0" width="36" height="24"/><text x="4" y="20">data</text></g><g transform="translate(36,0)"><rect class="string-text" x="0" y="0" width="25" height="24"/><text x="4" y="20">x</text></g><g transform="translate(0,24)"><rect class="string-text" x="0" y="0" width="36" height="25"/><text x="4" y="21">type</text></g><g transform="translate(36,24)"><rect class="string-text" x="0" y="0" width="25" height="25"/><text x="4" y="20">Nil</text></g></g><g><text x="31" y="16" text-anchor="middle">VarRef</text></g></g><g transform="translate(5,20)"><g transform="translate(0,0)"><rect class="string-text" x="0" y="0" width="8" height="8"/><text x="4" y="4"> </text></g><g transform="translate(8,0)"><rect class="string-text" x="0" y="0" width="8" height="8"/><text x="4" y="4"> </text></g></g><g><text x="13" y="16" text-anchor="middle">lhs</text></g></g><g class="vtree-node" transform="translate(67,118)"><path class="vtree-link" d="M14,24C14,73.5 14,73.5 14,123"/><g class="vtree-node" transform="translate(-19,78)"><g transform="translate(3,20)"><g transform="translate(0,0)"><rect class="string-text" x="0" y="0" width="36" height="24"/><text x="4" y="20">data</text></g><g transform="translate(36,0)"><rect class="string-text" x="0" y="0" width="23" height="24"/><text x="4" y="20">0</text></g><g transform="translate(0,24)"><rect class="string-text" x="0" y="0" width="36" height="25"/><text x="4" y="21">type</text></g><g transform="translate(36,24)"><rect class="string-text" x="0" y="0" width="23" height="25"/><text x="4" y="20">int</text></g></g><g><text x="33" y="16" text-anchor="middle">Constant</text></g></g><g transform="translate(6,20)"><g transform="translate(0,0)"><rect class="string-text" x="0" y="0" width="8" height="8"/><text x="4" y="4"> </text></g><g transform="translate(8,0)"><rect class="string-text" x="0" y="0" width="8" height="8"/><text x="4" y="4"> </text></g></g><g><text x="14" y="16" text-anchor="middle">rhs</text></g></g><g transform="translate(0,20)"><g transform="translate(0,0)"><rect class="string-text" x="0" y="0" width="73" height="24"/><text x="4" y="20">node_kind</text></g><g transform="translate(73,0)"><rect class="number-text" x="0" y="0" width="16" height="24"/><text x="4" y="20">8</text></g><g transform="translate(0,24)"><rect class="string-text" x="0" y="0" width="73" height="24"/><text x="4" y="20">op_kind</text></g><g transform="translate(73,24)"><rect class="number-text" x="0" y="0" width="16" height="24"/><text x="4" y="20">9</text></g></g><g><text x="45" y="16" text-anchor="middle">Operator</text></g></g><g transform="translate(30,20)"><g transform="translate(0,0)"><rect class="string-text" x="0" y="0" width="8" height="8"/><text x="4" y="4"> </text></g><g transform="translate(8,0)"><rect class="string-text" x="0" y="0" width="8" height="8"/><text x="4" y="4"> </text></g></g><g><text x="38" y="16" text-anchor="middle">conditional</text></g></g><g class="vtree-node" transform="translate(96,94)"><g class="vtree-node" transform="translate(-26,0)"><path class="vtree-link" d="M26,24C26,63 26,63 26,102"/><g class="vtree-node" transform="translate(-14,78)"><path class="vtree-link" d="M40,24C40,63 40,63 40,102"/><g class="vtree-node" transform="translate(19,78)"><path class="vtree-link" d="M21,24C21,73.5 21,73.5 21,123"/><g class="vtree-node" transform="translate(-12,78)"><g transform="translate(3,20)"><g transform="translate(0,0)"><rect class="string-text" x="0" y="0" width="36" height="24"/><text x="4" y="20">data</text></g><g transform="translate(36,0)"><rect class="string-text" x="0" y="0" width="23" height="24"/><text x="4" y="20">0</text></g><g transform="translate(0,24)"><rect class="string-text" x="0" y="0" width="36" height="25"/><text x="4" y="21">type</text></g><g transform="translate(36,24)"><rect class="string-text" x="0" y="0" width="23" height="25"/><text x="4" y="20">int</text></g></g><g><text x="33" y="16" text-anchor="middle">Constant</text></g></g><g transform="translate(13,20)"><g transform="translate(0,0)"><rect class="string-text" x="0" y="0" width="8" height="8"/><text x="4" y="4"> </text></g><g transform="translate(8,0)"><rect class="string-text" x="0" y="0" width="8" height="8"/><text x="4" y="4"> </text></g></g><g><text x="21" y="16" text-anchor="middle">value</text></g></g><g transform="translate(32,20)"><g transform="translate(0,0)"><rect class="string-text" x="0" y="0" width="8" height="8"/><text x="4" y="4"> </text></g><g transform="translate(8,0)"><rect class="string-text" x="0" y="0" width="8" height="8"/><text x="4" y="4"> </text></g></g><g><text x="40" y="16" text-anchor="middle">ReturnStmt</text></g></g><g transform="translate(18,20)"><g transform="translate(0,0)"><rect class="string-text" x="0" y="0" width="8" height="8"/><text x="4" y="4"> </text></g><g transform="translate(8,0)"><rect class="string-text" x="0" y="0" width="8" height="8"/><text x="4" y="4"> </text></g></g><g><text x="26" y="16" text-anchor="middle">then[0]</text></g></g></g><g transform="translate(2,20)"><g transform="translate(0,0)"><rect class="string-text" x="0" y="0" width="34" height="24"/><text x="4" y="20">else</text></g><g transform="translate(34,0)"><rect class="null-text" x="0" y="0" width="8" height="24"/><text x="4" y="4"/></g></g><g><text x="23" y="16" text-anchor="middle">IfStmt</text></g></g><g transform="translate(19,21)"><g transform="translate(0,0)"><rect class="string-text" x="0" y="0" width="8" height="8"/><text x="4" y="4"> </text></g><g transform="translate(8,0)"><rect class="string-text" x="0" y="0" width="8" height="8"/><text x="4" y="4"> </text></g></g><g><text x="27" y="17" text-anchor="middle">body[0]</text></g></g><g class="vtree-node" transform="translate(-55,0)"><path class="vtree-link" d="M27,25C27,68 27,68 27,111"/><g class="vtree-node" transform="translate(4,79)"><path class="vtree-link" d="M23,32C23,75 96,75 96,118"/><path class="vtree-link" d="M23,32C23,75 -22,75 -22,118"/><g class="vtree-node" transform="translate(-60,94)"><path class="vtree-link" d="M38,24C38,73 38,73 38,122"/><g class="vtree-node" transform="translate(-7,78)"><path class="vtree-link" d="M45,44C45,93 81,93 81,142"/><path class="vtree-link" d="M45,44C45,93 8,93 8,142"/><g class="vtree-node" transform="translate(-5,118)"><path class="vtree-link" d="M13,24C13,73.5 13,73.5 13,123"/><g class="vtree-node" transform="translate(-18,78)"><g transform="translate(0,20)"><g transform="translate(0,0)"><rect class="string-text" x="0" y="0" width="36" height="24"/><text x="4" y="20">data</text></g><g transform="translate(36,0)"><rect class="string-text" x="0" y="0" width="25" height="24"/><text x="4" y="20">x</text></g><g transform="translate(0,24)"><rect class="string-text" x="0" y="0" width="36" height="25"/><text x="4" y="21">type</text></g><g transform="translate(36,24)"><rect class="string-text" x="0" y="0" width="25" height="25"/><text x="4" y="20">Nil</text></g></g><g><text x="31" y="16" text-anchor="middle">VarRef</text></g></g><g transform="translate(5,20)"><g transform="translate(0,0)"><rect class="string-text" x="0" y="0" width="8" height="8"/><text x="4" y="4"> </text></g><g transform="translate(8,0)"><rect class="string-text" x="0" y="0" width="8" height="8"/><text x="4" y="4"> </text></g></g><g><text x="13" y="16" text-anchor="middle">lhs</text></g></g><g class="vtree-node" transform="translate(67,118)"><path class="vtree-link" d="M14,24C14,73.5 14,73.5 14,123"/><g class="vtree-node" transform="translate(-19,78)"><g transform="translate(3,20)"><g transform="translate(0,0)"><rect class="string-text" x="0" y="0" width="36" height="24"/><text x="4" y="20">data</text></g><g transform="translate(36,0)"><rect class="string-text" x="0" y="0" width="23" height="24"/><text x="4" y="20">1</text></g><g transform="translate(0,24)"><rect class="string-text" x="0" y="0" width="36" height="25"/><text x="4" y="21">type</text></g><g transform="translate(36,24)"><rect class="string-text" x="0" y="0" width="23" height="25"/><text x="4" y="20">int</text></g></g><g><text x="33" y="16" text-anchor="middle">Constant</text></g></g><g transform="translate(6,20)"><g transform="translate(0,0)"><rect class="string-text" x="0" y="0" width="8" height="8"/><text x="4" y="4"> </text></g><g transform="translate(8,0)"><rect class="string-text" x="0" y="0" width="8" height="8"/><text x="4" y="4"> </text></g></g><g><text x="14" y="16" text-anchor="middle">rhs</text></g></g><g transform="translate(0,20)"><g transform="translate(0,0)"><rect class="string-text" x="0" y="0" width="73" height="24"/><text x="4" y="20">node_kind</text></g><g transform="translate(73,0)"><rect class="number-text" x="0" y="0" width="16" height="24"/><text x="4" y="20">8</text></g><g transform="translate(0,24)"><rect class="string-text" x="0" y="0" width="73" height="24"/><text x="4" y="20">op_kind</text></g><g transform="translate(73,24)"><rect class="number-text" x="0" y="0" width="16" height="24"/><text x="4" y="20">9</text></g></g><g><text x="45" y="16" text-anchor="middle">Operator</text></g></g><g transform="translate(30,20)"><g transform="translate(0,0)"><rect class="string-text" x="0" y="0" width="8" height="8"/><text x="4" y="4"> </text></g><g transform="translate(8,0)"><rect class="string-text" x="0" y="0" width="8" height="8"/><text x="4" y="4"> </text></g></g><g><text x="38" y="16" text-anchor="middle">conditional</text></g></g><g class="vtree-node" transform="translate(96,94)"><g class="vtree-node" transform="translate(-26,0)"><path class="vtree-link" d="M26,24C26,63 26,63 26,102"/><g class="vtree-node" transform="translate(-14,78)"><path class="vtree-link" d="M40,24C40,63 40,63 40,102"/><g class="vtree-node" transform="translate(19,78)"><path class="vtree-link" d="M21,24C21,73.5 21,73.5 21,123"/><g class="vtree-node" transform="translate(-12,78)"><g transform="translate(3,20)"><g transform="translate(0,0)"><rect class="string-text" x="0" y="0" width="36" height="24"/><text x="4" y="20">data</text></g><g transform="translate(36,0)"><rect class="string-text" x="0" y="0" width="23" height="24"/><text x="4" y="20">1</text></g><g transform="translate(0,24)"><rect class="string-text" x="0" y="0" width="36" height="25"/><text x="4" y="21">type</text></g><g transform="translate(36,24)"><rect class="string-text" x="0" y="0" width="23" height="25"/><text x="4" y="20">int</text></g></g><g><text x="33" y="16" text-anchor="middle">Constant</text></g></g><g transform="translate(13,20)"><g transform="translate(0,0)"><rect class="string-text" x="0" y="0" width="8" height="8"/><text x="4" y="4"> </text></g><g transform="translate(8,0)"><rect class="string-text" x="0" y="0" width="8" height="8"/><text x="4" y="4"> </text></g></g><g><text x="21" y="16" text-anchor="middle">value</text></g></g><g transform="translate(32,20)"><g transform="translate(0,0)"><rect class="string-text" x="0" y="0" width="8" height="8"/><text x="4" y="4"> </text></g><g transform="translate(8,0)"><rect class="string-text" x="0" y="0" width="8" height="8"/><text x="4" y="4"> </text></g></g><g><text x="40" y="16" text-anchor="middle">ReturnStmt</text></g></g><g transform="translate(18,20)"><g transform="translate(0,0)"><rect class="string-text" x="0" y="0" width="8" height="8"/><text x="4" y="4"> </text></g><g transform="translate(8,0)"><rect class="string-text" x="0" y="0" width="8" height="8"/><text x="4" y="4"> </text></g></g><g><text x="26" y="16" text-anchor="middle">then[0]</text></g></g></g><g transform="translate(2,20)"><g transform="translate(0,0)"><rect class="string-text" x="0" y="0" width="34" height="24"/><text x="4" y="20">else</text></g><g transform="translate(34,0)"><rect class="null-text" x="0" y="0" width="8" height="24"/><text x="4" y="4"/></g></g><g><text x="23" y="16" text-anchor="middle">IfStmt</text></g></g><g transform="translate(19,21)"><g transform="translate(0,0)"><rect class="string-text" x="0" y="0" width="8" height="8"/><text x="4" y="4"> </text></g><g transform="translate(8,0)"><rect class="string-text" x="0" y="0" width="8" height="8"/><text x="4" y="4"> </text></g></g><g><text x="27" y="17" text-anchor="middle">body[1]</text></g></g><g class="vtree-node" transform="translate(208,0)"><path class="vtree-link" d="M27,25C27,64 27,64 27,103"/><g class="vtree-node" transform="translate(-13,79)"><path class="vtree-link" d="M40,24C40,63 40,63 40,102"/><g class="vtree-node" transform="translate(19,78)"><path class="vtree-link" d="M21,24C21,73 21,73 21,122"/><g class="vtree-node" transform="translate(-24,78)"><path class="vtree-link" d="M45,44C45,93 118,93 118,142"/><path class="vtree-link" d="M45,44C45,93 -28,93 -28,142"/><g class="vtree-node" transform="translate(-41,118)"><path class="vtree-link" d="M13,24C13,63 13,63 13,102"/><g class="vtree-node" transform="translate(-4,78)"><path class="vtree-link" d="M17,24C17,63.5 17,63.5 17,103"/><g class="vtree-node" transform="translate(17,78)"><g class="vtree-node" transform="translate(-26,0)"><path class="vtree-link" d="M26,25C26,74 26,74 26,123"/><g class="vtree-node" transform="translate(-19,79)"><path class="vtree-link" d="M45,44C45,93 81,93 81,142"/><path class="vtree-link" d="M45,44C45,93 8,93 8,142"/><g class="vtree-node" transform="translate(-5,118)"><path class="vtree-link" d="M13,24C13,73.5 13,73.5 13,123"/><g class="vtree-node" transform="translate(-18,78)"><g transform="translate(0,20)"><g transform="translate(0,0)"><rect class="string-text" x="0" y="0" width="36" height="24"/><text x="4" y="20">data</text></g><g transform="translate(36,0)"><rect class="string-text" x="0" y="0" width="25" height="24"/><text x="4" y="20">x</text></g><g transform="translate(0,24)"><rect class="string-text" x="0" y="0" width="36" height="25"/><text x="4" y="21">type</text></g><g transform="translate(36,24)"><rect class="string-text" x="0" y="0" width="25" height="25"/><text x="4" y="20">Nil</text></g></g><g><text x="31" y="16" text-anchor="middle">VarRef</text></g></g><g transform="translate(5,20)"><g transform="translate(0,0)"><rect class="string-text" x="0" y="0" width="8" height="8"/><text x="4" y="4"> </text></g><g transform="translate(8,0)"><rect class="string-text" x="0" y="0" width="8" height="8"/><text x="4" y="4"> </text></g></g><g><text x="13" y="16" text-anchor="middle">lhs</text></g></g><g class="vtree-node" transform="translate(67,118)"><path class="vtree-link" d="M14,24C14,73.5 14,73.5 14,123"/><g class="vtree-node" transform="translate(-19,78)"><g transform="translate(3,20)"><g transform="translate(0,0)"><rect class="string-text" x="0" y="0" width="36" height="24"/><text x="4" y="20">data</text></g><g transform="translate(36,0)"><rect class="string-text" x="0" y="0" width="23" height="24"/><text x="4" y="20">1</text></g><g transform="translate(0,24)"><rect class="string-text" x="0" y="0" width="36" height="25"/><text x="4" y="21">type</text></g><g transform="translate(36,24)"><rect class="string-text" x="0" y="0" width="23" height="25"/><text x="4" y="20">int</text></g></g><g><text x="33" y="16" text-anchor="middle">Constant</text></g></g><g transform="translate(6,20)"><g transform="translate(0,0)"><rect class="string-text" x="0" y="0" width="8" height="8"/><text x="4" y="4"> </text></g><g transform="translate(8,0)"><rect class="string-text" x="0" y="0" width="8" height="8"/><text x="4" y="4"> </text></g></g><g><text x="14" y="16" text-anchor="middle">rhs</text></g></g><g transform="translate(0,20)"><g transform="translate(0,0)"><rect class="string-text" x="0" y="0" width="73" height="24"/><text x="4" y="20">node_kind</text></g><g transform="translate(73,0)"><rect class="number-text" x="0" y="0" width="16" height="24"/><text x="4" y="20">8</text></g><g transform="translate(0,24)"><rect class="string-text" x="0" y="0" width="73" height="24"/><text x="4" y="20">op_kind</text></g><g transform="translate(73,24)"><rect class="number-text" x="0" y="0" width="16" height="24"/><text x="4" y="20">9</text></g></g><g><text x="45" y="16" text-anchor="middle">Operator</text></g></g><g transform="translate(18,21)"><g transform="translate(0,0)"><rect class="string-text" x="0" y="0" width="8" height="8"/><text x="4" y="4"> </text></g><g transform="translate(8,0)"><rect class="string-text" x="0" y="0" width="8" height="8"/><text x="4" y="4"> </text></g></g><g><text x="26" y="17" text-anchor="middle">args[0]</text></g></g></g><g transform="translate(9,20)"><g transform="translate(0,0)"><rect class="string-text" x="0" y="0" width="8" height="8"/><text x="4" y="4"> </text></g><g transform="translate(8,0)"><rect class="string-text" x="0" y="0" width="8" height="8"/><text x="4" y="4"> </text></g></g><g><text x="17" y="16" text-anchor="middle">Call</text></g></g><g transform="translate(5,20)"><g transform="translate(0,0)"><rect class="string-text" x="0" y="0" width="8" height="8"/><text x="4" y="4"> </text></g><g transform="translate(8,0)"><rect class="string-text" x="0" y="0" width="8" height="8"/><text x="4" y="4"> </text></g></g><g><text x="13" y="16" text-anchor="middle">lhs</text></g></g><g class="vtree-node" transform="translate(104,118)"><path class="vtree-link" d="M14,24C14,63 14,63 14,102"/><g class="vtree-node" transform="translate(-3,78)"><path class="vtree-link" d="M17,24C17,63.5 17,63.5 17,103"/><g class="vtree-node" transform="translate(17,78)"><g class="vtree-node" transform="translate(-26,0)"><path class="vtree-link" d="M26,25C26,74 26,74 26,123"/><g class="vtree-node" transform="translate(-19,79)"><path class="vtree-link" d="M45,44C45,93 81,93 81,142"/><path class="vtree-link" d="M45,44C45,93 8,93 8,142"/><g class="vtree-node" transform="translate(-5,118)"><path class="vtree-link" d="M13,24C13,73.5 13,73.5 13,123"/><g class="vtree-node" transform="translate(-18,78)"><g transform="translate(0,20)"><g transform="translate(0,0)"><rect class="string-text" x="0" y="0" width="36" height="24"/><text x="4" y="20">data</text></g><g transform="translate(36,0)"><rect class="string-text" x="0" y="0" width="25" height="24"/><text x="4" y="20">x</text></g><g transform="translate(0,24)"><rect class="string-text" x="0" y="0" width="36" height="25"/><text x="4" y="21">type</text></g><g transform="translate(36,24)"><rect class="string-text" x="0" y="0" width="25" height="25"/><text x="4" y="20">Nil</text></g></g><g><text x="31" y="16" text-anchor="middle">VarRef</text></g></g><g transform="translate(5,20)"><g transform="translate(0,0)"><rect class="string-text" x="0" y="0" width="8" height="8"/><text x="4" y="4"> </text></g><g transform="translate(8,0)"><rect class="string-text" x="0" y="0" width="8" height="8"/><text x="4" y="4"> </text></g></g><g><text x="13" y="16" text-anchor="middle">lhs</text></g></g><g class="vtree-node" transform="translate(67,118)"><path class="vtree-link" d="M14,24C14,73.5 14,73.5 14,123"/><g class="vtree-node" transform="translate(-19,78)"><g transform="translate(3,20)"><g transform="translate(0,0)"><rect class="string-text" x="0" y="0" width="36" height="24"/><text x="4" y="20">data</text></g><g transform="translate(36,0)"><rect class="string-text" x="0" y="0" width="23" height="24"/><text x="4" y="20">2</text></g><g transform="translate(0,24)"><rect class="string-text" x="0" y="0" width="36" height="25"/><text x="4" y="21">type</text></g><g transform="translate(36,24)"><rect class="string-text" x="0" y="0" width="23" height="25"/><text x="4" y="20">int</text></g></g><g><text x="33" y="16" text-anchor="middle">Constant</text></g></g><g transform="translate(6,20)"><g transform="translate(0,0)"><rect class="string-text" x="0" y="0" width="8" height="8"/><text x="4" y="4"> </text></g><g transform="translate(8,0)"><rect class="string-text" x="0" y="0" width="8" height="8"/><text x="4" y="4"> </text></g></g><g><text x="14" y="16" text-anchor="middle">rhs</text></g></g><g transform="translate(0,20)"><g transform="translate(0,0)"><rect class="string-text" x="0" y="0" width="73" height="24"/><text x="4" y="20">node_kind</text></g><g transform="translate(73,0)"><rect class="number-text" x="0" y="0" width="16" height="24"/><text x="4" y="20">8</text></g><g transform="translate(0,24)"><rect class="string-text" x="0" y="0" width="73" height="24"/><text x="4" y="20">op_kind</text></g><g transform="translate(73,24)"><rect class="number-text" x="0" y="0" width="16" height="24"/><text x="4" y="20">9</text></g></g><g><text x="45" y="16" text-anchor="middle">Operator</text></g></g><g transform="translate(18,21)"><g transform="translate(0,0)"><rect class="string-text" x="0" y="0" width="8" height="8"/><text x="4" y="4"> </text></g><g transform="translate(8,0)"><rect class="string-text" x="0" y="0" width="8" height="8"/><text x="4" y="4"> </text></g></g><g><text x="26" y="17" text-anchor="middle">args[0]</text></g></g></g><g transform="translate(9,20)"><g transform="translate(0,0)"><rect class="string-text" x="0" y="0" width="8" height="8"/><text x="4" y="4"> </text></g><g transform="translate(8,0)"><rect class="string-text" x="0" y="0" width="8" height="8"/><text x="4" y="4"> </text></g></g><g><text x="17" y="16" text-anchor="middle">Call</text></g></g><g transform="translate(6,20)"><g transform="translate(0,0)"><rect class="string-text" x="0" y="0" width="8" height="8"/><text x="4" y="4"> </text></g><g transform="translate(8,0)"><rect class="string-text" x="0" y="0" width="8" height="8"/><text x="4" y="4"> </text></g></g><g><text x="14" y="16" text-anchor="middle">rhs</text></g></g><g transform="translate(0,20)"><g transform="translate(0,0)"><rect class="string-text" x="0" y="0" width="73" height="24"/><text x="4" y="20">node_kind</text></g><g transform="translate(73,0)"><rect class="number-text" x="0" y="0" width="16" height="24"/><text x="4" y="20">8</text></g><g transform="translate(0,24)"><rect class="string-text" x="0" y="0" width="73" height="24"/><text x="4" y="20">op_kind</text></g><g transform="translate(73,24)"><rect class="number-text" x="0" y="0" width="16" height="24"/><text x="4" y="20">9</text></g></g><g><text x="45" y="16" text-anchor="middle">Operator</text></g></g><g transform="translate(13,20)"><g transform="translate(0,0)"><rect class="string-text" x="0" y="0" width="8" height="8"/><text x="4" y="4"> </text></g><g transform="translate(8,0)"><rect class="string-text" x="0" y="0" width="8" height="8"/><text x="4" y="4"> </text></g></g><g><text x="21" y="16" text-anchor="middle">value</text></g></g><g transform="translate(32,20)"><g transform="translate(0,0)"><rect class="string-text" x="0" y="0" width="8" height="8"/><text x="4" y="4"> </text></g><g transform="translate(8,0)"><rect class="string-text" x="0" y="0" width="8" height="8"/><text x="4" y="4"> </text></g></g><g><text x="40" y="16" text-anchor="middle">ReturnStmt</text></g></g><g transform="translate(19,21)"><g transform="translate(0,0)"><rect class="string-text" x="0" y="0" width="8" height="8"/><text x="4" y="4"> </text></g><g transform="translate(8,0)"><rect class="string-text" x="0" y="0" width="8" height="8"/><text x="4" y="4"> </text></g></g><g><text x="27" y="17" text-anchor="middle">body[2]</text></g></g></g><g transform="translate(1,20)"><g transform="translate(0,0)"><rect class="string-text" x="0" y="0" width="44" height="24"/><text x="4" y="20">name</text></g><g transform="translate(44,0)"><rect class="string-text" x="0" y="0" width="23" height="24"/><text x="4" y="20">fib</text></g></g><g><text x="34" y="16" text-anchor="middle">FuncDecl</text></g></g><g transform="translate(4,20)"><g transform="translate(0,0)"><rect class="string-text" x="0" y="0" width="8" height="8"/><text x="4" y="4"> </text></g><g transform="translate(8,0)"><rect class="string-text" x="0" y="0" width="8" height="8"/><text x="4" y="4"> </text></g></g><g><text x="12" y="16" text-anchor="middle">[0]</text></g></g><g class="vtree-node" transform="translate(417,0)"><path class="vtree-link" d="M12,24C12,73.5 12,73.5 12,123"/><g class="vtree-node" transform="translate(-30,78)"><path class="vtree-link" d="M42,45C42,94.5 -184,94.5 -184,144"/><g class="vtree-node" transform="translate(42,119)"><path class="vtree-link" d="M77,25C77,25 230,25 230,25"/><path class="vtree-link" d="M-105,25C-105,25 77,25 77,25"/><path class="vtree-link" d="M-226,25C-226,25 -105,25 -105,25"/><g class="vtree-node" transform="translate(-253,0)"><path class="vtree-link" d="M27,25C27,74.5 27,74.5 27,124"/><g class="vtree-node" transform="translate(-16,79)"><g transform="translate(0,20)"><g transform="translate(0,0)"><rect class="string-text" x="0" y="0" width="63" height="25"/><text x="4" y="21">type</text></g><g transform="translate(63,0)"><rect class="string-text" x="0" y="0" width="23" height="25"/><text x="4" y="20">int</text></g><g transform="translate(0,25)"><rect class="string-text" x="0" y="0" width="63" height="24"/><text x="4" y="20">varname</text></g><g transform="translate(63,25)"><rect class="string-text" x="0" y="0" width="23" height="24"/><text x="4" y="20">z</text></g></g><g><text x="43" y="16" text-anchor="middle">VarDecl</text></g></g><g transform="translate(19,21)"><g transform="translate(0,0)"><rect class="string-text" x="0" y="0" width="8" height="8"/><text x="4" y="4"> </text></g><g transform="translate(8,0)"><rect class="string-text" x="0" y="0" width="8" height="8"/><text x="4" y="4"> </text></g></g><g><text x="27" y="17" text-anchor="middle">body[0]</text></g></g><g class="vtree-node" transform="translate(-132,0)"><path class="vtree-link" d="M27,25C27,64.5 27,64.5 27,104"/><g class="vtree-node" transform="translate(-13,79)"><path class="vtree-link" d="M40,25C40,64 78,64 78,103"/><path class="vtree-link" d="M40,25C40,64 5,64 5,103"/><g class="vtree-node" transform="translate(-8,79)"><path class="vtree-link" d="M13,24C13,73.5 13,73.5 13,123"/><g class="vtree-node" transform="translate(-20,78)"><g transform="translate(3,20)"><g transform="translate(0,0)"><rect class="string-text" x="0" y="0" width="36" height="24"/><text x="4" y="20">data</text></g><g transform="translate(36,0)"><rect class="string-text" x="0" y="0" width="23" height="24"/><text x="4" y="20">8</text></g><g transform="translate(0,24)"><rect class="string-text" x="0" y="0" width="36" height="25"/><text x="4" y="21">type</text></g><g transform="translate(36,24)"><rect class="string-text" x="0" y="0" width="23" height="25"/><text x="4" y="20">int</text></g></g><g><text x="33" y="16" text-anchor="middle">Constant</text></g></g><g transform="translate(5,20)"><g transform="translate(0,0)"><rect class="string-text" x="0" y="0" width="8" height="8"/><text x="4" y="4"> </text></g><g transform="translate(8,0)"><rect class="string-text" x="0" y="0" width="8" height="8"/><text x="4" y="4"> </text></g></g><g><text x="13" y="16" text-anchor="middle">val</text></g></g><g class="vtree-node" transform="translate(64,79)"><path class="vtree-link" d="M14,24C14,73.5 14,73.5 14,123"/><g class="vtree-node" transform="translate(-17,78)"><g transform="translate(0,20)"><g transform="translate(0,0)"><rect class="string-text" x="0" y="0" width="36" height="24"/><text x="4" y="20">data</text></g><g transform="translate(36,0)"><rect class="string-text" x="0" y="0" width="25" height="24"/><text x="4" y="20">z</text></g><g transform="translate(0,24)"><rect class="string-text" x="0" y="0" width="36" height="25"/><text x="4" y="21">type</text></g><g transform="translate(36,24)"><rect class="string-text" x="0" y="0" width="25" height="25"/><text x="4" y="20">Nil</text></g></g><g><text x="31" y="16" text-anchor="middle">VarRef</text></g></g><g transform="translate(6,20)"><g transform="translate(0,0)"><rect class="string-text" x="0" y="0" width="8" height="8"/><text x="4" y="4"> </text></g><g transform="translate(8,0)"><rect class="string-text" x="0" y="0" width="8" height="8"/><text x="4" y="4"> </text></g></g><g><text x="14" y="16" text-anchor="middle">var</text></g></g><g transform="translate(32,21)"><g transform="translate(0,0)"><rect class="string-text" x="0" y="0" width="8" height="8"/><text x="4" y="4"> </text></g><g transform="translate(8,0)"><rect class="string-text" x="0" y="0" width="8" height="8"/><text x="4" y="4"> </text></g></g><g><text x="40" y="17" text-anchor="middle">AssignStmt</text></g></g><g transform="translate(19,21)"><g transform="translate(0,0)"><rect class="string-text" x="0" y="0" width="8" height="8"/><text x="4" y="4"> </text></g><g transform="translate(8,0)"><rect class="string-text" x="0" y="0" width="8" height="8"/><text x="4" y="4"> </text></g></g><g><text x="27" y="17" text-anchor="middle">body[1]</text></g></g><g class="vtree-node" transform="translate(50,0)"><path class="vtree-link" d="M27,25C27,64.5 27,64.5 27,104"/><g class="vtree-node" transform="translate(-13,79)"><path class="vtree-link" d="M40,25C40,64 113,64 113,103"/><path class="vtree-link" d="M40,25C40,64 4,64 4,103"/><g class="vtree-node" transform="translate(-9,79)"><path class="vtree-link" d="M13,24C13,73 13,73 13,122"/><g class="vtree-node" transform="translate(-32,78)"><path class="vtree-link" d="M45,44C45,93 81,93 81,142"/><path class="vtree-link" d="M45,44C45,93 8,93 8,142"/><g class="vtree-node" transform="translate(-5,118)"><path class="vtree-link" d="M13,24C13,73.5 13,73.5 13,123"/><g class="vtree-node" transform="translate(-18,78)"><g transform="translate(0,20)"><g transform="translate(0,0)"><rect class="string-text" x="0" y="0" width="36" height="24"/><text x="4" y="20">data</text></g><g transform="translate(36,0)"><rect class="string-text" x="0" y="0" width="25" height="24"/><text x="4" y="20">z</text></g><g transform="translate(0,24)"><rect class="string-text" x="0" y="0" width="36" height="25"/><text x="4" y="21">type</text></g><g transform="translate(36,24)"><rect class="string-text" x="0" y="0" width="25" height="25"/><text x="4" y="20">Nil</text></g></g><g><text x="31" y="16" text-anchor="middle">VarRef</text></g></g><g transform="translate(5,20)"><g transform="translate(0,0)"><rect class="string-text" x="0" y="0" width="8" height="8"/><text x="4" y="4"> </text></g><g transform="translate(8,0)"><rect class="string-text" x="0" y="0" width="8" height="8"/><text x="4" y="4"> </text></g></g><g><text x="13" y="16" text-anchor="middle">lhs</text></g></g><g class="vtree-node" transform="translate(67,118)"><path class="vtree-link" d="M14,24C14,63 14,63 14,102"/><g class="vtree-node" transform="translate(-3,78)"><path class="vtree-link" d="M17,24C17,63.5 17,63.5 17,103"/><g class="vtree-node" transform="translate(17,78)"><g class="vtree-node" transform="translate(-26,0)"><path class="vtree-link" d="M26,25C26,74.5 26,74.5 26,124"/><g class="vtree-node" transform="translate(-7,79)"><g transform="translate(3,20)"><g transform="translate(0,0)"><rect class="string-text" x="0" y="0" width="36" height="24"/><text x="4" y="20">data</text></g><g transform="translate(36,0)"><rect class="string-text" x="0" y="0" width="23" height="24"/><text x="4" y="20">5</text></g><g transform="translate(0,24)"><rect class="string-text" x="0" y="0" width="36" height="25"/><text x="4" y="21">type</text></g><g transform="translate(36,24)"><rect class="string-text" x="0" y="0" width="23" height="25"/><text x="4" y="20">int</text></g></g><g><text x="33" y="16" text-anchor="middle">Constant</text></g></g><g transform="translate(18,21)"><g transform="translate(0,0)"><rect class="string-text" x="0" y="0" width="8" height="8"/><text x="4" y="4"> </text></g><g transform="translate(8,0)"><rect class="string-text" x="0" y="0" width="8" height="8"/><text x="4" y="4"> </text></g></g><g><text x="26" y="17" text-anchor="middle">args[0]</text></g></g></g><g transform="translate(9,20)"><g transform="translate(0,0)"><rect class="string-text" x="0" y="0" width="8" height="8"/><text x="4" y="4"> </text></g><g transform="translate(8,0)"><rect class="string-text" x="0" y="0" width="8" height="8"/><text x="4" y="4"> </text></g></g><g><text x="17" y="16" text-anchor="middle">Call</text></g></g><g transform="translate(6,20)"><g transform="translate(0,0)"><rect class="string-text" x="0" y="0" width="8" height="8"/><text x="4" y="4"> </text></g><g transform="translate(8,0)"><rect class="string-text" x="0" y="0" width="8" height="8"/><text x="4" y="4"> </text></g></g><g><text x="14" y="16" text-anchor="middle">rhs</text></g></g><g transform="translate(0,20)"><g transform="translate(0,0)"><rect class="string-text" x="0" y="0" width="73" height="24"/><text x="4" y="20">node_kind</text></g><g transform="translate(73,0)"><rect class="number-text" x="0" y="0" width="16" height="24"/><text x="4" y="20">8</text></g><g transform="translate(0,24)"><rect class="string-text" x="0" y="0" width="73" height="24"/><text x="4" y="20">op_kind</text></g><g transform="translate(73,24)"><rect class="number-text" x="0" y="0" width="16" height="24"/><text x="4" y="20">9</text></g></g><g><text x="45" y="16" text-anchor="middle">Operator</text></g></g><g transform="translate(5,20)"><g transform="translate(0,0)"><rect class="string-text" x="0" y="0" width="8" height="8"/><text x="4" y="4"> </text></g><g transform="translate(8,0)"><rect class="string-text" x="0" y="0" width="8" height="8"/><text x="4" y="4"> </text></g></g><g><text x="13" y="16" text-anchor="middle">val</text></g></g><g class="vtree-node" transform="translate(99,79)"><path class="vtree-link" d="M14,24C14,73.5 14,73.5 14,123"/><g class="vtree-node" transform="translate(-17,78)"><g transform="translate(0,20)"><g transform="translate(0,0)"><rect class="string-text" x="0" y="0" width="36" height="24"/><text x="4" y="20">data</text></g><g transform="translate(36,0)"><rect class="string-text" x="0" y="0" width="25" height="24"/><text x="4" y="20">z</text></g><g transform="translate(0,24)"><rect class="string-text" x="0" y="0" width="36" height="25"/><text x="4" y="21">type</text></g><g transform="translate(36,24)"><rect class="string-text" x="0" y="0" width="25" height="25"/><text x="4" y="20">Nil</text></g></g><g><text x="31" y="16" text-anchor="middle">VarRef</text></g></g><g transform="translate(6,20)"><g transform="translate(0,0)"><rect class="string-text" x="0" y="0" width="8" height="8"/><text x="4" y="4"> </text></g><g transform="translate(8,0)"><rect class="string-text" x="0" y="0" width="8" height="8"/><text x="4" y="4"> </text></g></g><g><text x="14" y="16" text-anchor="middle">var</text></g></g><g transform="translate(32,21)"><g transform="translate(0,0)"><rect class="string-text" x="0" y="0" width="8" height="8"/><text x="4" y="4"> </text></g><g transform="translate(8,0)"><rect class="string-text" x="0" y="0" width="8" height="8"/><text x="4" y="4"> </text></g></g><g><text x="40" y="17" text-anchor="middle">AssignStmt</text></g></g><g transform="translate(19,21)"><g transform="translate(0,0)"><rect class="string-text" x="0" y="0" width="8" height="8"/><text x="4" y="4"> </text></g><g transform="translate(8,0)"><rect class="string-text" x="0" y="0" width="8" height="8"/><text x="4" y="4"> </text></g></g><g><text x="27" y="17" text-anchor="middle">body[2]</text></g></g><g class="vtree-node" transform="translate(203,0)"><path class="vtree-link" d="M27,25C27,64 27,64 27,103"/><g class="vtree-node" transform="translate(-13,79)"><path class="vtree-link" d="M40,24C40,63 40,63 40,102"/><g class="vtree-node" transform="translate(19,78)"><path class="vtree-link" d="M21,24C21,63 21,63 21,102"/><g class="vtree-node" transform="translate(4,78)"><path class="vtree-link" d="M17,24C17,63.5 17,63.5 17,103"/><g class="vtree-node" transform="translate(17,78)"><g class="vtree-node" transform="translate(-26,0)"><path class="vtree-link" d="M26,25C26,74.5 26,74.5 26,124"/><g class="vtree-node" transform="translate(-5,79)"><g transform="translate(0,20)"><g transform="translate(0,0)"><rect class="string-text" x="0" y="0" width="36" height="24"/><text x="4" y="20">data</text></g><g transform="translate(36,0)"><rect class="string-text" x="0" y="0" width="25" height="24"/><text x="4" y="20">z</text></g><g transform="translate(0,24)"><rect class="string-text" x="0" y="0" width="36" height="25"/><text x="4" y="21">type</text></g><g transform="translate(36,24)"><rect class="string-text" x="0" y="0" width="25" height="25"/><text x="4" y="20">Nil</text></g></g><g><text x="31" y="16" text-anchor="middle">VarRef</text></g></g><g transform="translate(18,21)"><g transform="translate(0,0)"><rect class="string-text" x="0" y="0" width="8" height="8"/><text x="4" y="4"> </text></g><g transform="translate(8,0)"><rect class="string-text" x="0" y="0" width="8" height="8"/><text x="4" y="4"> </text></g></g><g><text x="26" y="17" text-anchor="middle">args[0]</text></g></g></g><g transform="translate(9,20)"><g transform="translate(0,0)"><rect class="string-text" x="0" y="0" width="8" height="8"/><text x="4" y="4"> </text></g><g transform="translate(8,0)"><rect class="string-text" x="0" y="0" width="8" height="8"/><text x="4" y="4"> </text></g></g><g><text x="17" y="16" text-anchor="middle">Call</text></g></g><g transform="translate(13,20)"><g transform="translate(0,0)"><rect class="string-text" x="0" y="0" width="8" height="8"/><text x="4" y="4"> </text></g><g transform="translate(8,0)"><rect class="string-text" x="0" y="0" width="8" height="8"/><text x="4" y="4"> </text></g></g><g><text x="21" y="16" text-anchor="middle">value</text></g></g><g transform="translate(32,20)"><g transform="translate(0,0)"><rect class="string-text" x="0" y="0" width="8" height="8"/><text x="4" y="4"> </text></g><g transform="translate(8,0)"><rect class="string-text" x="0" y="0" width="8" height="8"/><text x="4" y="4"> </text></g></g><g><text x="40" y="16" text-anchor="middle">ReturnStmt</text></g></g><g transform="translate(19,21)"><g transform="translate(0,0)"><rect class="string-text" x="0" y="0" width="8" height="8"/><text x="4" y="4"> </text></g><g transform="translate(8,0)"><rect class="string-text" x="0" y="0" width="8" height="8"/><text x="4" y="4"> </text></g></g><g><text x="27" y="17" text-anchor="middle">body[3]</text></g></g></g><g transform="translate(0,20)"><g transform="translate(0,0)"><rect class="string-text" x="0" y="0" width="44" height="25"/><text x="4" y="21">args</text></g><g transform="translate(44,0)"><rect class="null-text" x="0" y="0" width="39" height="25"/><text x="4" y="4"/></g><g transform="translate(0,25)"><rect class="string-text" x="0" y="0" width="44" height="24"/><text x="4" y="20">name</text></g><g transform="translate(44,25)"><rect class="string-text" x="0" y="0" width="39" height="24"/><text x="4" y="20">main</text></g></g><g><text x="42" y="16" text-anchor="middle">FuncDecl</text></g></g><g transform="translate(4,20)"><g transform="translate(0,0)"><rect class="string-text" x="0" y="0" width="8" height="8"/><text x="4" y="4"> </text></g><g transform="translate(8,0)"><rect class="string-text" x="0" y="0" width="8" height="8"/><text x="4" y="4"> </text></g></g><g><text x="12" y="16" text-anchor="middle">[1]</text></g></g></g></g></g></svg>
